<?xml version="1.0" encoding="iso-8859-1"?>
<!-- Generator: Adobe Illustrator 14.0.0, SVG Export Plug-In . SVG Version: 6.00 Build 43363)  -->
<!DOCTYPE svg PUBLIC "-//W3C//DTD SVG 1.1//EN" "http://www.w3.org/Graphics/SVG/1.1/DTD/svg11.dtd">
<svg version="1.1" id="icon-m-toolbar-content-ovi-music-white-layer"
	 xmlns="http://www.w3.org/2000/svg" xmlns:xlink="http://www.w3.org/1999/xlink" x="0px" y="0px" width="32px" height="32px"
	 viewBox="0 0 32 32" style="enable-background:new 0 0 32 32;" xml:space="preserve">
<g id="icon-m-toolbar-content-ovi-music-white">
	<rect style="fill:none;" width="32" height="32"/>
	<path style="fill:#FFFFFF;" d="M29.735,5.816c-1.341,0-2.27,0.671-2.27,1.91c0,1.236,0.954,1.906,2.27,1.906
		c1.313,0,2.265-0.67,2.265-1.906C32,6.512,30.998,5.816,29.735,5.816z"/>
	<path style="fill:#FFFFFF;" d="M27.415,11.186c-0.394,0-0.721,0.007-0.95,0.317c-0.107,0.143-0.252,0.403-0.252,0.868
		c0,0.482,0.143,0.721,0.252,0.866c0.229,0.31,0.556,0.312,0.95,0.312c0.136,0,0.237,0,0.237,0v10.739c0,0.376,0,1.07,0.582,1.481
		c0.303,0.21,0.783,0.411,1.463,0.411c0.705,0,1.169-0.197,1.475-0.411c0.582-0.411,0.582-1.106,0.582-1.481V11.183h-4.061
		C27.693,11.183,27.549,11.186,27.415,11.186z"/>
	<path style="fill:#FFFFFF;" d="M19.562,22.244l-2.628-11.062H12.63l3.702,12.783c0.518,1.366,1.068,2.218,2.879,2.218
		c1.81,0,2.363-0.851,2.879-2.218l3.893-12.783h-3.637L19.562,22.244z"/>
	<path style="fill:#FFFFFF;" d="M6.8,10.975c-4.455,0-6.8,3.041-6.8,7.37c0,4.382,1.726,7.837,6.751,7.837
		c4.637,0,6.774-3.119,6.774-7.732C13.524,14.04,11.414,10.975,6.8,10.975z M6.751,23.809c-2.371,0-2.474-3.349-2.474-5.539
		c0-2.141,0.182-4.924,2.474-4.924c2.191,0,2.498,2.938,2.498,4.924C9.249,20.82,9.12,23.809,6.751,23.809z"/>
</g>
</svg>
