<?xml version="1.0" encoding="iso-8859-1"?>
<!-- Generator: Adobe Illustrator 14.0.0, SVG Export Plug-In . SVG Version: 6.00 Build 43363)  -->
<!DOCTYPE svg PUBLIC "-//W3C//DTD SVG 1.1//EN" "http://www.w3.org/Graphics/SVG/1.1/DTD/svg11.dtd">
<svg version="1.1" id="icon-m-description-layer"
	 xmlns="http://www.w3.org/2000/svg" xmlns:xlink="http://www.w3.org/1999/xlink" x="0px" y="0px" width="32px" height="32px"
	 viewBox="0 0 32 32" style="enable-background:new 0 0 32 32;" xml:space="preserve">
<g id="icon-s-description-inverse">
	<rect style="fill:none;" width="32" height="32"/>
	<path style="fill:#FFFFFF;" d="M16.924,8.502c1.035,0,1.875,0.825,1.875,1.842c0,1.018-0.84,1.842-1.875,1.842
		c-1.036,0-1.875-0.825-1.875-1.842S15.887,8.502,16.924,8.502z M18.799,22.086c0,0-1.34,1.651-3.259,1.383
		c-0.824-0.076-1.509-0.4-1.833-0.853c-0.375-0.424-0.828-1.497,0.147-4.011c0,0,0.435-0.939,0.588-1.303
		c-0.001-0.002-0.002-0.002-0.004-0.002c0.077-0.179,0.118-0.375,0.118-0.582c0-0.825-0.67-1.493-1.497-1.493
		c-0.031,0-0.062,0-0.093,0.002c0.366-0.601,1.164-1.138,2.168-1.383c1.535-0.376,2.969,0.071,3.205,0.997
		c0.055,0.217,0.037,0.441-0.039,0.663c-0.205,0.776-0.948,2.88-0.948,2.88l-0.011,0.02c-0.151,0.419-0.846,2.387-0.684,3.073
		c0.005,0.04,0.02,0.08,0.042,0.118c0.012,0.021,0.026,0.04,0.041,0.057c0.184,0.217,0.638,0.37,1.172,0.37
		c0.482,0,0.902-0.128,1.113-0.313C19.058,21.77,19.023,21.881,18.799,22.086z"/>
	<path style="fill:#FFFFFF;" d="M16,2.582C8.601,2.582,2.581,8.602,2.581,16c0,7.399,6.02,13.419,13.419,13.419
		c7.398,0,13.419-6.02,13.419-13.419C29.419,8.602,23.398,2.582,16,2.582z M16,27.119C9.87,27.119,4.881,22.131,4.881,16
		S9.87,4.882,16,4.882c6.131,0,11.118,4.987,11.118,11.118S22.131,27.119,16,27.119z"/>
</g>
</svg>
